<svg id="Layer_1" data-name="Layer 1" xmlns="http://www.w3.org/2000/svg" xmlns:xlink="http://www.w3.org/1999/xlink" viewBox="0 0 60 52.15"><defs><style>.cls-1{fill:#29abe2;}.cls-2{fill:red;}</style><symbol id="Add_Favorite" data-name="Add Favorite" viewBox="0 0 64.89 60.97"><path class="cls-1" d="M32,52.34C16.26,40.64,7.85,30.06,7,20.87V17.8c.69-7.32,5.19-10.41,8.08-10.69C15.87,7,16.62,7,17.3,7c4.16,0,5.9,1.28,9.34,5.37L32,18.76l5.36-6.39C40.8,8.28,42.54,7,46.7,7c.68,0,1.43,0,2.22.12,2.89.28,7.4,3.36,8.08,10.69v3.06c0,.06,0,.11,0,.17l.38,7.14h5.09a26.63,26.63,0,0,0,1.56-7V17.5C63.12,6.5,55.87.76,49.6.15c-1-.1-2-.15-2.9-.15C39.45,0,36,3.13,32,7.87,28,3.13,24.55,0,17.3,0c-.9,0-1.87,0-2.9.15C8.13.76.88,6.5,0,17.5v3.66C.82,31.69,8.77,44.68,32,61c2.65-1.86,5.1-3.68,7.36-5.45V50.79H34C33.37,51.3,32.7,51.82,32,52.34Z"/><polygon class="cls-2" points="53.78 36.65 53.78 25.54 44.25 25.54 44.25 36.65 33.14 36.65 33.14 46.18 44.25 46.18 44.25 57.29 53.78 57.29 53.78 46.18 64.89 46.18 64.89 36.65 53.78 36.65"/></symbol></defs><title>cart</title><use width="64.89" height="60.97" transform="translate(0 0) scale(0.92 0.86)" xlink:href="#Add_Favorite"/></svg>