<svg id="Layer_1" data-name="Layer 1" xmlns="http://www.w3.org/2000/svg" xmlns:xlink="http://www.w3.org/1999/xlink" viewBox="0 0 61 53.38"><defs><symbol id="Comments" data-name="Comments" viewBox="0 0 64 55.81"><path d="M32,0C49.67,0,64,11.56,64,25.82A22.57,22.57,0,0,1,57.85,41l5.95,14.78-25.2-5.07c-2.63.07-5.58.71-8.54.79h-1C11.92,51.55,0,39.8,0,25.82,0,11.56,14.33,0,32,0m0,7C18.21,7,7,15.44,7,25.82,7,36.5,16.48,44.55,29.06,44.55h.82c1.18,0,2.47-.19,3.84-.36s3.08-.38,4.69-.43l.79,0,.78.16L52.46,46.4l-1.11-2.75-1.64-4.07,2.94-3.25A15.76,15.76,0,0,0,57,25.82C57,15.44,45.79,7,32,7Z"/></symbol></defs><title>chat</title><use width="64" height="55.81" transform="translate(0 0) scale(0.95 0.96)" xlink:href="#Comments"/><circle cx="19.88" cy="25.33" r="3.88"/><circle cx="30.5" cy="25.33" r="3.88"/><circle cx="40.12" cy="28.33" r="3.88" transform="translate(-7.28 33.67) rotate(-45)"/></svg>