<svg id="Layer_1" data-name="Layer 1" xmlns="http://www.w3.org/2000/svg" viewBox="0 0 60.04 57.23"><defs><style>.cls-1{fill:#29abe2;}.cls-2{fill:#fff;}</style></defs><title>Hard</title><path class="cls-1" d="M29.95,58.07S6.92,42.54,1.82,28.36c0,0-6.51-14.88,4.81-24.43,0,0,12.28-9.19,23.32,4.13,0,0,10.8-13.49,24.35-3.27,0,0,9.24,7.83,4.2,22.58,0,0-9.24,16.43-21.59,25.55Z" transform="translate(0.04 -0.84)"/><path class="cls-2" d="M51.18,25.81C47.34,38,29.11,51.24,29.11,51.24l-2-1.8C13.28,37.44,8.36,24.85,8.36,24.85s-4.68-10.8,4-16.76,17.57,6.81,17.57,6.81c10.68-12.71,18.85-6,18.85-6S55,13.57,51.18,25.81Z" transform="translate(0.04 -0.84)"/></svg>