<?xml version="1.0" encoding="utf-8"?>
<!-- Generator: Adobe Illustrator 21.0.0, SVG Export Plug-In . SVG Version: 6.00 Build 0)  -->
<svg version="1.1" id="Layer_1" xmlns="http://www.w3.org/2000/svg" xmlns:xlink="http://www.w3.org/1999/xlink" x="0px" y="0px"
	 viewBox="0 0 60 60" style="enable-background:new 0 0 60 60;" xml:space="preserve">
<symbol  id="Announcement" viewBox="-32 -29.6 64 59.2">
	<path d="M29.5,16.2c-0.4,0-0.8-0.1-1.3-0.3l-9.4-3.6c-0.7,0.6-1.4,1-2.2,1.3l-43,15.6c-0.6,0.2-1.2,0.3-1.8,0.3
		c-2.2,0-3.8-1.7-3.8-4.3v-42.4c0-2.6,1.6-4.2,3.7-4.2c0.6,0,1.2,0.1,1.9,0.4L1-10.5c0.2-0.7,0.6-1.5,1.1-2.3c1.3-2.1,3.9-4.3,8-4.3
		c0,0,0.1,0,0.1,0c0.1,0,0.2,0,0.3,0c0-0.2,0.1-0.3,0.1-0.4l6.1-11.4c0.6-0.9,1.8-1.1,2.6-0.3l7.3,6.8c0.8,0.7,1,2.1,0.4,3L24.3-14
		c-0.4,1-0.8,2.8-1,3.9l-0.7,4.6c0,0.8-0.1,2.1-0.1,2.8l5.7-2.2c0.4-0.2,0.9-0.2,1.3-0.2C31-5.1,32-4,32-2.3v15.7
		C32,15.1,31,16.2,29.5,16.2z M-26,22.8L14.6,8.1C14.8,8,15,7.8,15.2,7.6c0-0.2-0.1-0.5-0.1-0.7V4.2c0-0.7,0.2-1.4,0.5-2.1
		c-0.3-0.5-0.7-0.9-1.1-1L-26-14.4V22.8z M5.5-10.6c-0.3,0.5-0.6,1.1-0.7,1.6l4.1,1.6L9.7-13C7.4-12.8,6.3-11.8,5.5-10.6z"/>
</symbol>
<use xlink:href="#Announcement"  width="64" height="59.2" x="-32" y="-29.6" transform="matrix(0.9375 0 0 -0.9497 30 30.1244)" style="overflow:visible;"/>
</svg>
