<svg id="Layer_1" data-name="Layer 1" xmlns="http://www.w3.org/2000/svg" viewBox="0 0 59.74 10.2"><defs><style>.cls-1{fill:#c17802;}</style></defs><title>stars</title><polygon class="cls-1" points="5.06 0.42 6.63 3.64 10.13 4.16 7.6 6.67 8.19 10.2 5.06 8.53 1.93 10.2 2.53 6.67 0 4.16 3.5 3.64 5.06 0.42"/><polygon class="cls-1" points="17.79 0.42 19.35 3.64 22.85 4.16 20.32 6.67 20.91 10.2 17.79 8.53 14.65 10.2 15.25 6.67 12.72 4.16 16.22 3.64 17.79 0.42"/><polygon class="cls-1" points="30.08 0.42 31.65 3.64 35.15 4.16 32.61 6.67 33.21 10.2 30.08 8.53 26.95 10.2 27.55 6.67 25.02 4.16 28.52 3.64 30.08 0.42"/><polygon class="cls-1" points="42.38 0 43.94 3.22 47.44 3.74 44.91 6.24 45.51 9.78 42.38 8.11 39.25 9.78 39.85 6.24 37.31 3.74 40.81 3.22 42.38 0"/><polygon class="cls-1" points="54.68 0.42 56.24 3.64 59.74 4.16 57.21 6.67 57.81 10.2 54.68 8.53 51.55 10.2 52.14 6.67 49.61 4.16 53.11 3.64 54.68 0.42"/></svg>